<svg xmlns="http://www.w3.org/2000/svg" xmlns:android="http://schemas.android.com/apk/res/android" width="64" height="64" viewportWidth="64" viewportHeight="64">
	<path d="M0,0h512v512h-512z" fill="#F5F5F5"/>
	<path d="M0,0h512v512h-512z" fill="#0049FF" fillAlpha="0.996078"/>
	<path d="M291.92,214C291.07,206.06 287.5,199.88 281.19,195.46C274.95,191.03 266.83,188.82 256.83,188.82C249.8,188.82 243.77,189.88 238.74,192C233.71,194.12 229.86,197 227.19,200.64C224.53,204.27 223.16,208.42 223.1,213.09C223.1,216.97 223.98,220.33 225.74,223.18C227.56,226.03 230.01,228.46 233.1,230.46C236.19,232.39 239.62,234.03 243.38,235.36C247.13,236.7 250.92,237.82 254.74,238.73L272.19,243.09C279.22,244.73 285.98,246.94 292.47,249.73C299.01,252.51 304.86,256.03 310.01,260.27C315.22,264.52 319.35,269.64 322.38,275.64C325.4,281.64 326.92,288.67 326.92,296.73C326.92,307.64 324.13,317.24 318.56,325.55C312.98,333.79 304.92,340.24 294.38,344.91C283.89,349.52 271.19,351.82 256.28,351.82C241.8,351.82 229.22,349.58 218.56,345.09C207.95,340.61 199.65,334.06 193.65,325.45C187.71,316.85 184.5,306.36 184.01,294H217.19C217.68,300.48 219.68,305.88 223.19,310.18C226.71,314.48 231.28,317.7 236.92,319.82C242.62,321.94 248.98,323 256.01,323C263.35,323 269.77,321.91 275.28,319.73C280.86,317.48 285.22,314.39 288.38,310.45C291.53,306.45 293.13,301.79 293.19,296.45C293.13,291.61 291.71,287.61 288.92,284.45C286.13,281.24 282.22,278.58 277.19,276.45C272.22,274.27 266.4,272.33 259.74,270.64L238.56,265.18C223.22,261.24 211.1,255.27 202.19,247.27C193.35,239.21 188.92,228.51 188.92,215.18C188.92,204.21 191.89,194.61 197.83,186.36C203.83,178.12 211.98,171.73 222.28,167.18C232.59,162.58 244.25,160.27 257.28,160.27C270.5,160.27 282.07,162.58 292.01,167.18C302.01,171.73 309.86,178.06 315.56,186.18C321.25,194.24 324.19,203.51 324.38,214H291.92Z" fill="#ffffff"/>
</svg>
